User Type,Username,Date,Text
[T],Tyr3ll,2012-07-31T18:21Z,"General

Complete name                  : Point_Break.(1991).BDrip_Remastered_edition.(HD.1080p[)(]AC3-5.1)-PreRC1-(FR).mkv
Format                         : Matroska
Format version                 : Version 2
File size                      : 9.07 GiB
Duration                       : 2h 2mn
Overall bit rate mode          : Variable
Overall bit rate               : 10.6 Mbps
Writing application            : Lavf51.12.1
Writing library                : Lavf51.12.1

Video
ID                             : 1
Format                         : AVC
Format/Info                    : Advanced Video Codec
Format profile                 : Baseline@L4.0
Format settings, CABAC         : No
Format settings, ReFrames      : 1 frame
Format settings, GOP           : M=1, N=12
Codec ID                       : V_MPEG4/ISO/AVC
Duration                       : 2h 2mn
Bit rate mode                  : Variable
Bit rate                       : 9 787 Kbps
Maximum bit rate               : 15.0 Mbps
Width                          : 1 920 pixels
Height                         : 1 080 pixels
Display aspect ratio           : 16:9
Frame rate                     : 23.976 fps
Original frame rate            : 24.000 fps
Color space                    : YUV
Chroma subsampling             : 4:2:0
Bit depth                      : 8 bits
Scan type                      : Progressive
Bits/(Pixel*Frame)             : 0.197
Stream size                    : 8.34 GiB (92%)
Default                        : Yes
Forced                         : No

Audio
ID                             : 2
Format                         : AC-3
Format/Info                    : Audio Coding 3
Mode extension                 : CM (complete main)
Format settings, Endianness    : Big
Codec ID                       : A_AC3
Duration                       : 2h 2mn
Bit rate mode                  : Constant
Bit rate                       : 640 Kbps
Channel(s)                     : 6 channels
Channel positions              : Front: L C R, Side: L R, LFE
Sampling rate                  : 48.0 KHz
Bit depth                      : 16 bits
Compression mode               : Lossy
Stream size                    : 558 MiB (6%)
Default                        : Yes
Forced                         : No

Text
ID                             : 3
Default                        : Yes
Forced                         : No"
,Gacy8Gein,2012-07-31T21:44Z,French Audio Only.
[T],Tyr3ll,2012-08-03T15:37Z,"sure dude,french language only as described up more of course.
Sorry if you were in wait of other languages so.
Ok,well so...
I will make an english remastered version but question is :
Would you like,
to AC3-5.1/640 kbps/16 bits/48 Khz/6 channels
 or 
to E-AC3 5.1/320 kbps/32 bits/48 Khz/6 channels then ?"
